<svg xmlns="http://www.w3.org/2000/svg" width="375" viewBox="0 0 375 375" height="375" version="1.0"><defs><clipPath id="a"><path d="M 130 80 L 262.5 80 L 262.5 212.582031 L 130 212.582031 Z M 130 80"/></clipPath><clipPath id="b"><path d="M 112.5 63 L 188 63 L 188 138 L 112.5 138 Z M 112.5 63"/></clipPath><clipPath id="c"><path d="M 113 150 L 176 150 L 176 212.582031 L 113 212.582031 Z M 113 150"/></clipPath></defs><g clip-path="url(#a)"><path fill="#03989E" d="M 130.71875 92.597656 L 142.503906 80.8125 L 262.125 200.429688 L 250.339844 212.214844 Z M 130.71875 92.597656"/></g><g clip-path="url(#b)"><path fill="#03989E" d="M 150.832031 138 C 144.167969 138 138.332031 135.5 133.332031 130.5 L 117.5 115.5 C 114.167969 112.167969 112.5 108 112.5 103 C 112.5 98 114.167969 94.667969 117.5 91.332031 L 140.832031 68 C 144.167969 64.667969 148.332031 63 152.5 63 C 156.667969 63 160.832031 64.667969 164.167969 68 L 180 83.832031 C 190 93.832031 190 109.667969 180 118.832031 L 168.332031 130.5 C 163.332031 135.5 157.5 138 150.832031 138 Z M 152.5 79.667969 L 129.167969 103 L 145 118.832031 C 148.332031 122.167969 153.332031 122.167969 156.667969 118.832031 L 168.332031 107.167969 C 171.667969 103.832031 171.667969 98.832031 168.332031 95.5 Z M 152.5 79.667969"/></g><path fill="#03989E" d="M 167.5 93.832031 C 169.167969 95.5 169.167969 98 167.5 99.667969 C 165.832031 101.332031 163.332031 101.332031 161.667969 99.667969 L 149.167969 112.167969 C 150.832031 113.832031 150.832031 116.332031 149.167969 118 C 147.5 119.667969 145.832031 119.667969 143.332031 118 L 133.332031 118.832031 L 139.167969 124.667969 C 145.832031 131.332031 156.667969 131.332031 162.5 124.667969 L 174.167969 113 C 180.832031 106.332031 180.832031 95.5 174.167969 89.667969 L 168.332031 83.832031 Z M 222.5 138 C 240.832031 119.667969 255.832031 93.832031 253.332031 67.167969 L 250.832031 63 L 204.167969 109.667969 L 199.167969 114.667969 Z M 222.5 138"/><g clip-path="url(#c)"><path fill="#03989E" d="M 113.207031 200.714844 L 163.882812 150.039062 L 175.667969 161.824219 L 124.992188 212.5 Z M 113.207031 200.714844"/></g><g fill="#008037"><g><g><path d="M 16.015625 -3.125 L 16.015625 0 L 1.171875 0 L 1.171875 -3.125 L 4.296875 -3.125 L 4.296875 -21.09375 L 1.171875 -21.09375 L 1.171875 -24.21875 L 22.265625 -24.21875 L 22.265625 -16.40625 L 18.75 -16.40625 L 18.75 -17.96875 C 18.75 -18.289062 18.71875 -18.617188 18.65625 -18.953125 C 18.601562 -19.296875 18.519531 -19.628906 18.40625 -19.953125 C 18.300781 -20.285156 18.140625 -20.554688 17.921875 -20.765625 C 17.703125 -20.984375 17.457031 -21.09375 17.1875 -21.09375 L 10.546875 -21.09375 L 10.546875 -12.5 L 14.0625 -12.5 L 14.0625 -16.015625 L 17.1875 -16.015625 L 17.1875 -5.859375 L 14.0625 -5.859375 L 14.0625 -9.375 L 10.546875 -9.375 L 10.546875 -3.125 Z M 16.015625 -3.125" transform="translate(106.743 248.333)"/></g></g></g><g fill="#008037"><g><g><path d="M 1.171875 -24.21875 L 14.453125 -24.21875 L 14.453125 -21.09375 L 10.546875 -21.09375 L 10.546875 -3.125 L 16.796875 -3.125 C 17.066406 -3.125 17.3125 -3.226562 17.53125 -3.4375 C 17.75 -3.65625 17.910156 -3.925781 18.015625 -4.25 C 18.128906 -4.582031 18.210938 -4.914062 18.265625 -5.25 C 18.328125 -5.59375 18.359375 -5.925781 18.359375 -6.25 L 18.359375 -9.375 L 21.875 -9.375 L 21.875 0 L 1.171875 0 L 1.171875 -3.125 L 4.296875 -3.125 L 4.296875 -21.09375 L 1.171875 -21.09375 Z M 1.171875 -24.21875" transform="translate(130.178 248.333)"/></g></g></g><g fill="#008037"><g><g><path d="M 1.171875 -24.21875 L 13.671875 -24.21875 L 13.671875 -21.09375 L 10.546875 -21.09375 L 10.546875 -3.125 L 13.671875 -3.125 L 13.671875 0 L 1.171875 0 L 1.171875 -3.125 L 4.296875 -3.125 L 4.296875 -21.09375 L 1.171875 -21.09375 Z M 1.171875 -24.21875" transform="translate(153.614 248.333)"/></g></g></g><g fill="#008037"><g><g><path d="M 1.171875 0 L 1.171875 -3.125 L 4.296875 -3.125 L 4.296875 -21.09375 L 1.171875 -21.09375 L 1.171875 -24.21875 L 11.328125 -24.21875 C 13.691406 -24.21875 15.546875 -24.140625 16.890625 -23.984375 C 18.234375 -23.835938 19.28125 -23.609375 20.03125 -23.296875 C 20.78125 -22.984375 21.472656 -22.507812 22.109375 -21.875 C 22.671875 -21.3125 23.097656 -20.597656 23.390625 -19.734375 C 23.679688 -18.878906 23.828125 -17.96875 23.828125 -17 C 23.828125 -16.195312 23.722656 -15.457031 23.515625 -14.78125 C 23.316406 -14.113281 23.03125 -13.519531 22.65625 -13 C 22.28125 -12.488281 21.816406 -12.023438 21.265625 -11.609375 C 20.722656 -11.203125 20.125 -10.859375 19.46875 -10.578125 C 18.8125 -10.304688 18.082031 -10.078125 17.28125 -9.890625 C 16.488281 -9.710938 15.664062 -9.582031 14.8125 -9.5 C 13.96875 -9.414062 13.066406 -9.375 12.109375 -9.375 L 10.546875 -9.375 L 10.546875 -3.125 L 14.453125 -3.125 L 14.453125 0 Z M 10.546875 -12.5 L 12.109375 -12.5 C 15.234375 -12.5 16.796875 -13.929688 16.796875 -16.796875 C 16.796875 -17.296875 16.757812 -17.742188 16.6875 -18.140625 C 16.625 -18.546875 16.5 -18.9375 16.3125 -19.3125 C 16.132812 -19.695312 15.898438 -20.015625 15.609375 -20.265625 C 15.328125 -20.515625 14.953125 -20.710938 14.484375 -20.859375 C 14.023438 -21.015625 13.492188 -21.09375 12.890625 -21.09375 L 10.546875 -21.09375 Z M 10.546875 -12.5" transform="translate(168.456 248.333)"/></g></g></g><g fill="#008037"><g><g><path d="M 1.171875 0 L 1.171875 -3.125 L 4.296875 -3.125 L 4.296875 -21.09375 L 1.171875 -21.09375 L 1.171875 -24.21875 L 11.328125 -24.21875 C 13.691406 -24.21875 15.546875 -24.140625 16.890625 -23.984375 C 18.234375 -23.835938 19.28125 -23.609375 20.03125 -23.296875 C 20.78125 -22.984375 21.472656 -22.507812 22.109375 -21.875 C 22.671875 -21.3125 23.097656 -20.597656 23.390625 -19.734375 C 23.679688 -18.878906 23.828125 -17.96875 23.828125 -17 C 23.828125 -16.195312 23.722656 -15.457031 23.515625 -14.78125 C 23.316406 -14.113281 23.03125 -13.519531 22.65625 -13 C 22.28125 -12.488281 21.816406 -12.023438 21.265625 -11.609375 C 20.722656 -11.203125 20.125 -10.859375 19.46875 -10.578125 C 18.8125 -10.304688 18.082031 -10.078125 17.28125 -9.890625 C 16.488281 -9.710938 15.664062 -9.582031 14.8125 -9.5 C 13.96875 -9.414062 13.066406 -9.375 12.109375 -9.375 L 10.546875 -9.375 L 10.546875 -3.125 L 14.453125 -3.125 L 14.453125 0 Z M 10.546875 -12.5 L 12.109375 -12.5 C 15.234375 -12.5 16.796875 -13.929688 16.796875 -16.796875 C 16.796875 -17.296875 16.757812 -17.742188 16.6875 -18.140625 C 16.625 -18.546875 16.5 -18.9375 16.3125 -19.3125 C 16.132812 -19.695312 15.898438 -20.015625 15.609375 -20.265625 C 15.328125 -20.515625 14.953125 -20.710938 14.484375 -20.859375 C 14.023438 -21.015625 13.492188 -21.09375 12.890625 -21.09375 L 10.546875 -21.09375 Z M 10.546875 -12.5" transform="translate(192.868 248.333)"/></g></g></g><g fill="#008037"><g><g><path d="M 1.171875 -24.21875 L 22.265625 -24.21875 L 22.265625 -16.40625 L 18.75 -16.40625 L 18.75 -17.96875 C 18.75 -18.289062 18.71875 -18.617188 18.65625 -18.953125 C 18.601562 -19.296875 18.519531 -19.628906 18.40625 -19.953125 C 18.300781 -20.285156 18.140625 -20.554688 17.921875 -20.765625 C 17.703125 -20.984375 17.457031 -21.09375 17.1875 -21.09375 L 10.546875 -21.09375 L 10.546875 -12.5 L 14.0625 -12.5 L 14.0625 -16.015625 L 17.1875 -16.015625 L 17.1875 -5.859375 L 14.0625 -5.859375 L 14.0625 -9.375 L 10.546875 -9.375 L 10.546875 -3.125 L 17.578125 -3.125 C 17.847656 -3.125 18.09375 -3.226562 18.3125 -3.4375 C 18.53125 -3.65625 18.691406 -3.925781 18.796875 -4.25 C 18.910156 -4.582031 18.992188 -4.914062 19.046875 -5.25 C 19.109375 -5.59375 19.140625 -5.925781 19.140625 -6.25 L 19.140625 -7.8125 L 22.65625 -7.8125 L 22.65625 0 L 1.171875 0 L 1.171875 -3.125 L 4.296875 -3.125 L 4.296875 -21.09375 L 1.171875 -21.09375 Z M 1.171875 -24.21875" transform="translate(217.28 248.333)"/></g></g></g><g fill="#008037"><g><g><path d="M 1.171875 0 L 1.171875 -3.125 L 4.296875 -3.125 L 4.296875 -21.09375 L 1.171875 -21.09375 L 1.171875 -24.21875 L 11.328125 -24.21875 C 13.691406 -24.21875 15.546875 -24.140625 16.890625 -23.984375 C 18.234375 -23.835938 19.28125 -23.609375 20.03125 -23.296875 C 20.78125 -22.984375 21.472656 -22.507812 22.109375 -21.875 C 22.671875 -21.3125 23.097656 -20.597656 23.390625 -19.734375 C 23.679688 -18.878906 23.828125 -17.96875 23.828125 -17 C 23.828125 -13.957031 22.359375 -11.8125 19.421875 -10.5625 C 20.492188 -9.644531 21.179688 -8.207031 21.484375 -6.25 C 21.515625 -6.039062 21.550781 -5.769531 21.59375 -5.4375 C 21.644531 -5.113281 21.679688 -4.863281 21.703125 -4.6875 C 21.734375 -4.507812 21.769531 -4.296875 21.8125 -4.046875 C 21.863281 -3.804688 21.90625 -3.617188 21.9375 -3.484375 C 21.976562 -3.359375 22.023438 -3.226562 22.078125 -3.09375 C 22.140625 -2.96875 22.207031 -2.875 22.28125 -2.8125 C 22.363281 -2.757812 22.453125 -2.734375 22.546875 -2.734375 C 22.742188 -2.734375 22.914062 -2.820312 23.0625 -3 C 23.207031 -3.1875 23.328125 -3.457031 23.421875 -3.8125 C 23.515625 -4.175781 23.582031 -4.507812 23.625 -4.8125 C 23.664062 -5.113281 23.71875 -5.503906 23.78125 -5.984375 C 23.789062 -6.097656 23.800781 -6.1875 23.8125 -6.25 L 26.5625 -5.96875 C 26.5 -5.332031 26.441406 -4.835938 26.390625 -4.484375 C 26.335938 -4.140625 26.253906 -3.707031 26.140625 -3.1875 C 26.035156 -2.664062 25.910156 -2.257812 25.765625 -1.96875 C 25.628906 -1.6875 25.4375 -1.367188 25.1875 -1.015625 C 24.9375 -0.671875 24.644531 -0.410156 24.3125 -0.234375 C 23.976562 -0.0664062 23.566406 0.078125 23.078125 0.203125 C 22.597656 0.328125 22.050781 0.390625 21.4375 0.390625 C 20.988281 0.390625 20.578125 0.367188 20.203125 0.328125 C 19.835938 0.296875 19.5 0.234375 19.1875 0.140625 C 18.875 0.046875 18.585938 -0.0507812 18.328125 -0.15625 C 18.066406 -0.269531 17.820312 -0.421875 17.59375 -0.609375 C 17.363281 -0.804688 17.15625 -1 16.96875 -1.1875 C 16.789062 -1.375 16.617188 -1.613281 16.453125 -1.90625 C 16.285156 -2.207031 16.140625 -2.492188 16.015625 -2.765625 C 15.890625 -3.046875 15.753906 -3.382812 15.609375 -3.78125 C 15.460938 -4.1875 15.332031 -4.570312 15.21875 -4.9375 C 15.113281 -5.300781 14.988281 -5.738281 14.84375 -6.25 C 14.664062 -6.875 14.5 -7.363281 14.34375 -7.71875 C 14.195312 -8.082031 14.003906 -8.398438 13.765625 -8.671875 C 13.535156 -8.941406 13.257812 -9.125 12.9375 -9.21875 C 12.613281 -9.320312 12.207031 -9.375 11.71875 -9.375 L 10.546875 -9.375 L 10.546875 -3.125 L 13.671875 -3.125 L 13.671875 0 Z M 10.546875 -12.5 L 12.109375 -12.5 C 15.234375 -12.5 16.796875 -13.929688 16.796875 -16.796875 C 16.796875 -17.296875 16.757812 -17.742188 16.6875 -18.140625 C 16.625 -18.546875 16.5 -18.9375 16.3125 -19.3125 C 16.132812 -19.695312 15.898438 -20.015625 15.609375 -20.265625 C 15.328125 -20.515625 14.953125 -20.710938 14.484375 -20.859375 C 14.023438 -21.015625 13.492188 -21.09375 12.890625 -21.09375 L 10.546875 -21.09375 Z M 10.546875 -12.5" transform="translate(241.496 248.333)"/></g></g></g><g fill="#008037"><g><g><path d="M 3.484375 -4.4375 C 3.816406 -4.4375 4.113281 -4.476562 4.375 -4.5625 C 4.632812 -4.644531 4.847656 -4.757812 5.015625 -4.90625 C 5.191406 -5.050781 5.320312 -5.226562 5.40625 -5.4375 C 5.5 -5.644531 5.546875 -5.875 5.546875 -6.125 C 5.546875 -6.644531 5.375 -7.035156 5.03125 -7.296875 C 4.695312 -7.554688 4.195312 -7.6875 3.53125 -7.6875 L 2.25 -7.6875 L 2.25 -4.4375 Z M 7.453125 0 L 6.421875 0 C 6.210938 0 6.054688 -0.0820312 5.953125 -0.25 L 3.71875 -3.3125 C 3.65625 -3.414062 3.582031 -3.488281 3.5 -3.53125 C 3.425781 -3.570312 3.304688 -3.59375 3.140625 -3.59375 L 2.25 -3.59375 L 2.25 0 L 1.09375 0 L 1.09375 -8.59375 L 3.53125 -8.59375 C 4.070312 -8.59375 4.539062 -8.535156 4.9375 -8.421875 C 5.332031 -8.316406 5.660156 -8.160156 5.921875 -7.953125 C 6.179688 -7.742188 6.367188 -7.492188 6.484375 -7.203125 C 6.609375 -6.910156 6.671875 -6.582031 6.671875 -6.21875 C 6.671875 -5.914062 6.625 -5.628906 6.53125 -5.359375 C 6.4375 -5.097656 6.296875 -4.863281 6.109375 -4.65625 C 5.929688 -4.445312 5.710938 -4.265625 5.453125 -4.109375 C 5.191406 -3.960938 4.894531 -3.851562 4.5625 -3.78125 C 4.707031 -3.695312 4.832031 -3.570312 4.9375 -3.40625 Z M 7.453125 0" transform="translate(89.59 272.383)"/></g></g></g><g fill="#008037"><g><g><path d="M 6.40625 -0.953125 L 6.390625 0 L 1.09375 0 L 1.09375 -8.59375 L 6.390625 -8.59375 L 6.390625 -7.65625 L 2.265625 -7.65625 L 2.265625 -4.796875 L 5.609375 -4.796875 L 5.609375 -3.875 L 2.265625 -3.875 L 2.265625 -0.953125 Z M 6.40625 -0.953125" transform="translate(101.62 272.383)"/></g></g></g><g fill="#008037"><g><g><path d="M 9.046875 -4.296875 C 9.046875 -3.648438 8.941406 -3.054688 8.734375 -2.515625 C 8.535156 -1.984375 8.25 -1.519531 7.875 -1.125 C 7.5 -0.738281 7.050781 -0.4375 6.53125 -0.21875 C 6.007812 -0.0078125 5.429688 0.09375 4.796875 0.09375 C 4.171875 0.09375 3.597656 -0.0078125 3.078125 -0.21875 C 2.554688 -0.4375 2.109375 -0.738281 1.734375 -1.125 C 1.359375 -1.519531 1.066406 -1.984375 0.859375 -2.515625 C 0.660156 -3.054688 0.5625 -3.648438 0.5625 -4.296875 C 0.5625 -4.941406 0.660156 -5.53125 0.859375 -6.0625 C 1.066406 -6.601562 1.359375 -7.066406 1.734375 -7.453125 C 2.109375 -7.847656 2.554688 -8.148438 3.078125 -8.359375 C 3.597656 -8.578125 4.171875 -8.6875 4.796875 -8.6875 C 5.429688 -8.6875 6.007812 -8.578125 6.53125 -8.359375 C 7.050781 -8.148438 7.5 -7.847656 7.875 -7.453125 C 8.25 -7.066406 8.535156 -6.601562 8.734375 -6.0625 C 8.941406 -5.53125 9.046875 -4.941406 9.046875 -4.296875 Z M 7.84375 -4.296875 C 7.84375 -4.828125 7.769531 -5.300781 7.625 -5.71875 C 7.488281 -6.132812 7.285156 -6.488281 7.015625 -6.78125 C 6.753906 -7.070312 6.4375 -7.296875 6.0625 -7.453125 C 5.6875 -7.609375 5.265625 -7.6875 4.796875 -7.6875 C 4.335938 -7.6875 3.921875 -7.609375 3.546875 -7.453125 C 3.171875 -7.296875 2.847656 -7.070312 2.578125 -6.78125 C 2.316406 -6.488281 2.113281 -6.132812 1.96875 -5.71875 C 1.820312 -5.300781 1.75 -4.828125 1.75 -4.296875 C 1.75 -3.765625 1.820312 -3.289062 1.96875 -2.875 C 2.113281 -2.457031 2.316406 -2.101562 2.578125 -1.8125 C 2.847656 -1.519531 3.171875 -1.296875 3.546875 -1.140625 C 3.921875 -0.992188 4.335938 -0.921875 4.796875 -0.921875 C 5.265625 -0.921875 5.6875 -0.992188 6.0625 -1.140625 C 6.4375 -1.296875 6.753906 -1.519531 7.015625 -1.8125 C 7.285156 -2.101562 7.488281 -2.457031 7.625 -2.875 C 7.769531 -3.289062 7.84375 -3.765625 7.84375 -4.296875 Z M 7.84375 -4.296875" transform="translate(113.062 272.383)"/></g></g></g><g fill="#008037"><g><g><path d="M 3.484375 -4.4375 C 3.816406 -4.4375 4.113281 -4.476562 4.375 -4.5625 C 4.632812 -4.644531 4.847656 -4.757812 5.015625 -4.90625 C 5.191406 -5.050781 5.320312 -5.226562 5.40625 -5.4375 C 5.5 -5.644531 5.546875 -5.875 5.546875 -6.125 C 5.546875 -6.644531 5.375 -7.035156 5.03125 -7.296875 C 4.695312 -7.554688 4.195312 -7.6875 3.53125 -7.6875 L 2.25 -7.6875 L 2.25 -4.4375 Z M 7.453125 0 L 6.421875 0 C 6.210938 0 6.054688 -0.0820312 5.953125 -0.25 L 3.71875 -3.3125 C 3.65625 -3.414062 3.582031 -3.488281 3.5 -3.53125 C 3.425781 -3.570312 3.304688 -3.59375 3.140625 -3.59375 L 2.25 -3.59375 L 2.25 0 L 1.09375 0 L 1.09375 -8.59375 L 3.53125 -8.59375 C 4.070312 -8.59375 4.539062 -8.535156 4.9375 -8.421875 C 5.332031 -8.316406 5.660156 -8.160156 5.921875 -7.953125 C 6.179688 -7.742188 6.367188 -7.492188 6.484375 -7.203125 C 6.609375 -6.910156 6.671875 -6.582031 6.671875 -6.21875 C 6.671875 -5.914062 6.625 -5.628906 6.53125 -5.359375 C 6.4375 -5.097656 6.296875 -4.863281 6.109375 -4.65625 C 5.929688 -4.445312 5.710938 -4.265625 5.453125 -4.109375 C 5.191406 -3.960938 4.894531 -3.851562 4.5625 -3.78125 C 4.707031 -3.695312 4.832031 -3.570312 4.9375 -3.40625 Z M 7.453125 0" transform="translate(127.18 272.383)"/></g></g></g><g fill="#008037"><g><g><path d="M 8.546875 -4.296875 C 8.546875 -3.648438 8.441406 -3.0625 8.234375 -2.53125 C 8.035156 -2.007812 7.75 -1.5625 7.375 -1.1875 C 7.007812 -0.8125 6.5625 -0.519531 6.03125 -0.3125 C 5.507812 -0.101562 4.9375 0 4.3125 0 L 1.09375 0 L 1.09375 -8.59375 L 4.3125 -8.59375 C 4.9375 -8.59375 5.507812 -8.488281 6.03125 -8.28125 C 6.5625 -8.082031 7.007812 -7.789062 7.375 -7.40625 C 7.75 -7.03125 8.035156 -6.578125 8.234375 -6.046875 C 8.441406 -5.523438 8.546875 -4.941406 8.546875 -4.296875 Z M 7.359375 -4.296875 C 7.359375 -4.828125 7.285156 -5.300781 7.140625 -5.71875 C 6.992188 -6.132812 6.785156 -6.484375 6.515625 -6.765625 C 6.253906 -7.054688 5.9375 -7.273438 5.5625 -7.421875 C 5.1875 -7.578125 4.769531 -7.65625 4.3125 -7.65625 L 2.265625 -7.65625 L 2.265625 -0.9375 L 4.3125 -0.9375 C 4.769531 -0.9375 5.1875 -1.007812 5.5625 -1.15625 C 5.9375 -1.3125 6.253906 -1.53125 6.515625 -1.8125 C 6.785156 -2.101562 6.992188 -2.457031 7.140625 -2.875 C 7.285156 -3.289062 7.359375 -3.765625 7.359375 -4.296875 Z M 7.359375 -4.296875" transform="translate(139.21 272.383)"/></g></g></g><g fill="#008037"><g><g><path d="M 6.40625 -0.953125 L 6.390625 0 L 1.09375 0 L 1.09375 -8.59375 L 6.390625 -8.59375 L 6.390625 -7.65625 L 2.265625 -7.65625 L 2.265625 -4.796875 L 5.609375 -4.796875 L 5.609375 -3.875 L 2.265625 -3.875 L 2.265625 -0.953125 Z M 6.40625 -0.953125" transform="translate(152.848 272.383)"/></g></g></g><g fill="#008037"><g><g><path d="M 3.484375 -4.4375 C 3.816406 -4.4375 4.113281 -4.476562 4.375 -4.5625 C 4.632812 -4.644531 4.847656 -4.757812 5.015625 -4.90625 C 5.191406 -5.050781 5.320312 -5.226562 5.40625 -5.4375 C 5.5 -5.644531 5.546875 -5.875 5.546875 -6.125 C 5.546875 -6.644531 5.375 -7.035156 5.03125 -7.296875 C 4.695312 -7.554688 4.195312 -7.6875 3.53125 -7.6875 L 2.25 -7.6875 L 2.25 -4.4375 Z M 7.453125 0 L 6.421875 0 C 6.210938 0 6.054688 -0.0820312 5.953125 -0.25 L 3.71875 -3.3125 C 3.65625 -3.414062 3.582031 -3.488281 3.5 -3.53125 C 3.425781 -3.570312 3.304688 -3.59375 3.140625 -3.59375 L 2.25 -3.59375 L 2.25 0 L 1.09375 0 L 1.09375 -8.59375 L 3.53125 -8.59375 C 4.070312 -8.59375 4.539062 -8.535156 4.9375 -8.421875 C 5.332031 -8.316406 5.660156 -8.160156 5.921875 -7.953125 C 6.179688 -7.742188 6.367188 -7.492188 6.484375 -7.203125 C 6.609375 -6.910156 6.671875 -6.582031 6.671875 -6.21875 C 6.671875 -5.914062 6.625 -5.628906 6.53125 -5.359375 C 6.4375 -5.097656 6.296875 -4.863281 6.109375 -4.65625 C 5.929688 -4.445312 5.710938 -4.265625 5.453125 -4.109375 C 5.191406 -3.960938 4.894531 -3.851562 4.5625 -3.78125 C 4.707031 -3.695312 4.832031 -3.570312 4.9375 -3.40625 Z M 7.453125 0" transform="translate(164.29 272.383)"/></g></g></g><g fill="#008037"><g><g><path d="M 4.328125 -3.421875 L 4.328125 0 L 3.15625 0 L 3.15625 -3.421875 L 0.015625 -8.59375 L 1.03125 -8.59375 C 1.132812 -8.59375 1.21875 -8.566406 1.28125 -8.515625 C 1.34375 -8.472656 1.394531 -8.410156 1.4375 -8.328125 L 3.40625 -4.984375 C 3.476562 -4.847656 3.539062 -4.71875 3.59375 -4.59375 C 3.65625 -4.46875 3.707031 -4.34375 3.75 -4.21875 C 3.800781 -4.34375 3.851562 -4.46875 3.90625 -4.59375 C 3.957031 -4.71875 4.019531 -4.847656 4.09375 -4.984375 L 6.046875 -8.328125 C 6.085938 -8.398438 6.140625 -8.460938 6.203125 -8.515625 C 6.265625 -8.566406 6.347656 -8.59375 6.453125 -8.59375 L 7.46875 -8.59375 Z M 4.328125 -3.421875" transform="translate(183.904 272.383)"/></g></g></g><g fill="#008037"><g><g><path d="M 9.046875 -4.296875 C 9.046875 -3.648438 8.941406 -3.054688 8.734375 -2.515625 C 8.535156 -1.984375 8.25 -1.519531 7.875 -1.125 C 7.5 -0.738281 7.050781 -0.4375 6.53125 -0.21875 C 6.007812 -0.0078125 5.429688 0.09375 4.796875 0.09375 C 4.171875 0.09375 3.597656 -0.0078125 3.078125 -0.21875 C 2.554688 -0.4375 2.109375 -0.738281 1.734375 -1.125 C 1.359375 -1.519531 1.066406 -1.984375 0.859375 -2.515625 C 0.660156 -3.054688 0.5625 -3.648438 0.5625 -4.296875 C 0.5625 -4.941406 0.660156 -5.53125 0.859375 -6.0625 C 1.066406 -6.601562 1.359375 -7.066406 1.734375 -7.453125 C 2.109375 -7.847656 2.554688 -8.148438 3.078125 -8.359375 C 3.597656 -8.578125 4.171875 -8.6875 4.796875 -8.6875 C 5.429688 -8.6875 6.007812 -8.578125 6.53125 -8.359375 C 7.050781 -8.148438 7.5 -7.847656 7.875 -7.453125 C 8.25 -7.066406 8.535156 -6.601562 8.734375 -6.0625 C 8.941406 -5.53125 9.046875 -4.941406 9.046875 -4.296875 Z M 7.84375 -4.296875 C 7.84375 -4.828125 7.769531 -5.300781 7.625 -5.71875 C 7.488281 -6.132812 7.285156 -6.488281 7.015625 -6.78125 C 6.753906 -7.070312 6.4375 -7.296875 6.0625 -7.453125 C 5.6875 -7.609375 5.265625 -7.6875 4.796875 -7.6875 C 4.335938 -7.6875 3.921875 -7.609375 3.546875 -7.453125 C 3.171875 -7.296875 2.847656 -7.070312 2.578125 -6.78125 C 2.316406 -6.488281 2.113281 -6.132812 1.96875 -5.71875 C 1.820312 -5.300781 1.75 -4.828125 1.75 -4.296875 C 1.75 -3.765625 1.820312 -3.289062 1.96875 -2.875 C 2.113281 -2.457031 2.316406 -2.101562 2.578125 -1.8125 C 2.847656 -1.519531 3.171875 -1.296875 3.546875 -1.140625 C 3.921875 -0.992188 4.335938 -0.921875 4.796875 -0.921875 C 5.265625 -0.921875 5.6875 -0.992188 6.0625 -1.140625 C 6.4375 -1.296875 6.753906 -1.519531 7.015625 -1.8125 C 7.285156 -2.101562 7.488281 -2.457031 7.625 -2.875 C 7.769531 -3.289062 7.84375 -3.765625 7.84375 -4.296875 Z M 7.84375 -4.296875" transform="translate(195.904 272.383)"/></g></g></g><g fill="#008037"><g><g><path d="M 4.421875 -0.921875 C 4.773438 -0.921875 5.09375 -0.976562 5.375 -1.09375 C 5.65625 -1.21875 5.890625 -1.390625 6.078125 -1.609375 C 6.273438 -1.828125 6.421875 -2.082031 6.515625 -2.375 C 6.617188 -2.675781 6.671875 -3.007812 6.671875 -3.375 L 6.671875 -8.59375 L 7.84375 -8.59375 L 7.84375 -3.375 C 7.84375 -2.875 7.757812 -2.410156 7.59375 -1.984375 C 7.4375 -1.566406 7.210938 -1.203125 6.921875 -0.890625 C 6.628906 -0.578125 6.269531 -0.332031 5.84375 -0.15625 C 5.414062 0.0195312 4.941406 0.109375 4.421875 0.109375 C 3.890625 0.109375 3.410156 0.0195312 2.984375 -0.15625 C 2.566406 -0.332031 2.207031 -0.578125 1.90625 -0.890625 C 1.613281 -1.203125 1.382812 -1.566406 1.21875 -1.984375 C 1.0625 -2.410156 0.984375 -2.875 0.984375 -3.375 L 0.984375 -8.59375 L 2.140625 -8.59375 L 2.140625 -3.375 C 2.140625 -3.019531 2.191406 -2.691406 2.296875 -2.390625 C 2.398438 -2.085938 2.546875 -1.828125 2.734375 -1.609375 C 2.929688 -1.398438 3.171875 -1.234375 3.453125 -1.109375 C 3.734375 -0.984375 4.054688 -0.921875 4.421875 -0.921875 Z M 4.421875 -0.921875" transform="translate(210.022 272.383)"/></g></g></g><g fill="#008037"><g><g><path d="M 3.484375 -4.4375 C 3.816406 -4.4375 4.113281 -4.476562 4.375 -4.5625 C 4.632812 -4.644531 4.847656 -4.757812 5.015625 -4.90625 C 5.191406 -5.050781 5.320312 -5.226562 5.40625 -5.4375 C 5.5 -5.644531 5.546875 -5.875 5.546875 -6.125 C 5.546875 -6.644531 5.375 -7.035156 5.03125 -7.296875 C 4.695312 -7.554688 4.195312 -7.6875 3.53125 -7.6875 L 2.25 -7.6875 L 2.25 -4.4375 Z M 7.453125 0 L 6.421875 0 C 6.210938 0 6.054688 -0.0820312 5.953125 -0.25 L 3.71875 -3.3125 C 3.65625 -3.414062 3.582031 -3.488281 3.5 -3.53125 C 3.425781 -3.570312 3.304688 -3.59375 3.140625 -3.59375 L 2.25 -3.59375 L 2.25 0 L 1.09375 0 L 1.09375 -8.59375 L 3.53125 -8.59375 C 4.070312 -8.59375 4.539062 -8.535156 4.9375 -8.421875 C 5.332031 -8.316406 5.660156 -8.160156 5.921875 -7.953125 C 6.179688 -7.742188 6.367188 -7.492188 6.484375 -7.203125 C 6.609375 -6.910156 6.671875 -6.582031 6.671875 -6.21875 C 6.671875 -5.914062 6.625 -5.628906 6.53125 -5.359375 C 6.4375 -5.097656 6.296875 -4.863281 6.109375 -4.65625 C 5.929688 -4.445312 5.710938 -4.265625 5.453125 -4.109375 C 5.191406 -3.960938 4.894531 -3.851562 4.5625 -3.78125 C 4.707031 -3.695312 4.832031 -3.570312 4.9375 -3.40625 Z M 7.453125 0" transform="translate(223.36 272.383)"/></g></g></g><g fill="#008037"><g><g><path d="M 6.90625 -7.625 L 4.125 -7.625 L 4.125 0 L 2.96875 0 L 2.96875 -7.625 L 0.1875 -7.625 L 0.1875 -8.59375 L 6.90625 -8.59375 Z M 6.90625 -7.625" transform="translate(242.974 272.383)"/></g></g></g><g fill="#008037"><g><g><path d="M 6.40625 -0.953125 L 6.390625 0 L 1.09375 0 L 1.09375 -8.59375 L 6.390625 -8.59375 L 6.390625 -7.65625 L 2.265625 -7.65625 L 2.265625 -4.796875 L 5.609375 -4.796875 L 5.609375 -3.875 L 2.265625 -3.875 L 2.265625 -0.953125 Z M 6.40625 -0.953125" transform="translate(254.572 272.383)"/></g></g></g><g fill="#008037"><g><g><path d="M 7.65625 0 L 6.5 0 C 6.414062 0 6.347656 -0.0195312 6.296875 -0.0625 C 6.242188 -0.113281 6.203125 -0.164062 6.171875 -0.21875 L 3.875 -3.828125 C 3.84375 -3.734375 3.804688 -3.65625 3.765625 -3.59375 L 1.515625 -0.21875 C 1.472656 -0.164062 1.425781 -0.113281 1.375 -0.0625 C 1.332031 -0.0195312 1.273438 0 1.203125 0 L 0.125 0 L 3.078125 -4.421875 L 0.234375 -8.59375 L 1.390625 -8.59375 C 1.484375 -8.59375 1.546875 -8.578125 1.578125 -8.546875 C 1.617188 -8.523438 1.65625 -8.488281 1.6875 -8.4375 L 3.9375 -4.984375 C 3.96875 -5.078125 4.007812 -5.171875 4.0625 -5.265625 L 6.1875 -8.40625 C 6.21875 -8.46875 6.253906 -8.515625 6.296875 -8.546875 C 6.335938 -8.578125 6.390625 -8.59375 6.453125 -8.59375 L 7.5625 -8.59375 L 4.703125 -4.46875 Z M 7.65625 0" transform="translate(266.014 272.383)"/></g></g></g><g fill="#008037"><g><g><path d="M 6.90625 -7.625 L 4.125 -7.625 L 4.125 0 L 2.96875 0 L 2.96875 -7.625 L 0.1875 -7.625 L 0.1875 -8.59375 L 6.90625 -8.59375 Z M 6.90625 -7.625" transform="translate(278.314 272.383)"/></g></g></g></svg>